<?xml version="1.0" encoding="UTF-8"?>
<svg width="256px" height="192px" viewBox="0 0 256 192" version="1.1" xmlns="http://www.w3.org/2000/svg" xmlns:xlink="http://www.w3.org/1999/xlink">
    <!-- Generator: Sketch 51.3 (57544) - http://www.bohemiancoding.com/sketch -->
    <title>logo</title>
    <desc>Created with Sketch.</desc>
    <defs></defs>
    <g id="Page-1" stroke="none" stroke-width="1" fill="none" fill-rule="evenodd">
        <g id="logo" fill-rule="nonzero">
            <path d="M156.666,37.983 C141.097,37.983 129.748,55.795 129.748,95.122 C129.748,134.305 141.097,153.04 156.666,153.04 C172.235,153.04 183.452,134.305 183.452,95.122 C183.452,55.795 172.235,37.983 156.666,37.983 Z" id="Shape" fill="#009FE3"></path>
            <path d="M227.359,0.303 L210.37,0.303 C227.251,23.933 240.299,57.018 240.299,96.513 C240.299,136.008 226.912,169.77 210.258,191.599 L227.36,191.599 C243.258,171.315 255.927,137.247 255.927,96.513 C255.927,55.779 245.71,26.349 227.359,0.303 Z" id="Shape" fill="#009FE3"></path>
            <path d="M48.134,48.273 L48.134,190.78 L103.735,190.78 C89.231,188.841 82.018,180.087 82.018,164.287 L82.018,119.45 C82.018,102.763 76.11,94.702 62.947,93.453 L62.947,90.954 C76.225,89.705 82.018,81.532 82.018,64.957 L82.018,26.921 C82.018,10.809 88.586,2.36 103.087,0.384 L48.134,0.384 L0.367,32.312 L0.367,79.152 L47.078,48.273 L48.134,48.273 Z" id="Shape" fill="#FFFFFF"></path>
        </g>
    </g>
</svg>